<mxfile host="app.diagrams.net" modified="2024-05-09T20:14:08.413Z" agent="Mozilla/5.0 (X11; Ubuntu; Linux x86_64; rv:125.0) Gecko/20100101 Firefox/125.0" etag="iosrXnOgR53REnKhO2vi" version="24.3.1" type="device">
  <diagram id="KdCrRrIsqHHysakkYIEn" name="Page-1">
    <mxGraphModel dx="3010" dy="1214" grid="1" gridSize="10" guides="1" tooltips="1" connect="1" arrows="1" fold="1" page="1" pageScale="1" pageWidth="827" pageHeight="1169" math="0" shadow="0">
      <root>
        <mxCell id="0" />
        <mxCell id="1" parent="0" />
        <mxCell id="ht_Mzunb_tVLJNK0aL3s-10" value="STATE_IDLE" style="swimlane;fontStyle=0;childLayout=stackLayout;horizontal=1;startSize=26;horizontalStack=0;resizeParent=1;resizeParentMax=0;resizeLast=0;collapsible=1;marginBottom=0;align=center;fontSize=14;" parent="1" vertex="1">
          <mxGeometry x="290" y="310" width="190" height="56" as="geometry" />
        </mxCell>
        <mxCell id="ht_Mzunb_tVLJNK0aL3s-11" value="/* Initialize array of anchors */" style="text;strokeColor=none;fillColor=none;spacingLeft=4;spacingRight=4;overflow=hidden;rotatable=0;points=[[0,0.5],[1,0.5]];portConstraint=eastwest;fontSize=13;" parent="ht_Mzunb_tVLJNK0aL3s-10" vertex="1">
          <mxGeometry y="26" width="190" height="30" as="geometry" />
        </mxCell>
        <mxCell id="ht_Mzunb_tVLJNK0aL3s-14" value="STATE_DISCOVERY" style="swimlane;fontStyle=0;childLayout=stackLayout;horizontal=1;startSize=26;horizontalStack=0;resizeParent=1;resizeParentMax=0;resizeLast=0;collapsible=1;marginBottom=0;align=center;fontSize=14;" parent="1" vertex="1">
          <mxGeometry x="667" y="280" width="273" height="80" as="geometry" />
        </mxCell>
        <mxCell id="ht_Mzunb_tVLJNK0aL3s-15" value="/* Establish the connection with anchors; &#xa;* store the anchors to the array of anchors */" style="text;strokeColor=none;fillColor=none;spacingLeft=4;spacingRight=4;overflow=hidden;rotatable=0;points=[[0,0.5],[1,0.5]];portConstraint=eastwest;fontSize=13;" parent="ht_Mzunb_tVLJNK0aL3s-14" vertex="1">
          <mxGeometry y="26" width="273" height="54" as="geometry" />
        </mxCell>
        <mxCell id="ht_Mzunb_tVLJNK0aL3s-20" value="" style="endArrow=classic;html=1;rounded=0;strokeColor=default;jumpStyle=none;exitX=1;exitY=0.5;exitDx=0;exitDy=0;entryX=0.004;entryY=0.105;entryDx=0;entryDy=0;entryPerimeter=0;" parent="1" source="ht_Mzunb_tVLJNK0aL3s-10" edge="1">
          <mxGeometry width="50" height="50" relative="1" as="geometry">
            <mxPoint x="550" y="340" as="sourcePoint" />
            <mxPoint x="667.6400000000001" y="339.14999999999986" as="targetPoint" />
          </mxGeometry>
        </mxCell>
        <mxCell id="ht_Mzunb_tVLJNK0aL3s-21" value="( transmitBlink() )" style="edgeLabel;html=1;align=center;verticalAlign=middle;resizable=0;points=[];fontSize=13;" parent="ht_Mzunb_tVLJNK0aL3s-20" vertex="1" connectable="0">
          <mxGeometry x="-0.0572" y="1" relative="1" as="geometry">
            <mxPoint as="offset" />
          </mxGeometry>
        </mxCell>
        <mxCell id="ht_Mzunb_tVLJNK0aL3s-23" value="wait for connections" style="text;strokeColor=none;fillColor=none;spacingLeft=4;spacingRight=4;overflow=hidden;rotatable=0;points=[[0,0.5],[1,0.5]];portConstraint=eastwest;fontSize=13;" parent="1" vertex="1">
          <mxGeometry x="790" y="220" width="168" height="30" as="geometry" />
        </mxCell>
        <mxCell id="ht_Mzunb_tVLJNK0aL3s-25" value="" style="endArrow=classic;html=1;rounded=0;strokeColor=default;jumpStyle=none;exitX=0.341;exitY=0;exitDx=0;exitDy=0;exitPerimeter=0;" parent="1" source="ht_Mzunb_tVLJNK0aL3s-14" edge="1">
          <mxGeometry width="50" height="50" relative="1" as="geometry">
            <mxPoint x="840.001" y="277.3599999999999" as="sourcePoint" />
            <mxPoint x="435.97" y="310" as="targetPoint" />
            <Array as="points">
              <mxPoint x="760" y="250" />
              <mxPoint x="435.97" y="250" />
            </Array>
          </mxGeometry>
        </mxCell>
        <mxCell id="ht_Mzunb_tVLJNK0aL3s-26" value="DISCOVERY_TIMEOUT expires &amp;amp;&amp;amp;&lt;br style=&quot;font-size: 13px;&quot;&gt;&lt;font style=&quot;font-size: 13px;&quot;&gt;number of anchors &amp;lt; 2&lt;br style=&quot;font-size: 13px;&quot;&gt;&lt;/font&gt;" style="edgeLabel;html=1;align=center;verticalAlign=middle;resizable=0;points=[];fontSize=13;" parent="1" vertex="1" connectable="0">
          <mxGeometry x="570.0007680252164" y="240.00466019562575" as="geometry">
            <mxPoint x="1" y="9" as="offset" />
          </mxGeometry>
        </mxCell>
        <mxCell id="ht_Mzunb_tVLJNK0aL3s-27" value="" style="endArrow=classic;html=1;rounded=0;strokeColor=default;jumpStyle=none;entryX=0.484;entryY=-0.047;entryDx=0;entryDy=0;entryPerimeter=0;" parent="1" edge="1">
          <mxGeometry width="50" height="50" relative="1" as="geometry">
            <mxPoint x="790" y="360" as="sourcePoint" />
            <mxPoint x="790.04" y="454.24" as="targetPoint" />
          </mxGeometry>
        </mxCell>
        <mxCell id="ht_Mzunb_tVLJNK0aL3s-28" value="DISCOVERY_TIMEOUT expires &amp;amp;&amp;amp;&lt;br style=&quot;font-size: 13px;&quot;&gt;&lt;font style=&quot;font-size: 13px;&quot;&gt;number of anchors = 2&lt;br style=&quot;font-size: 13px;&quot;&gt;&lt;/font&gt;" style="edgeLabel;html=1;align=center;verticalAlign=middle;resizable=0;points=[];fontSize=13;" parent="1" vertex="1" connectable="0">
          <mxGeometry x="803.5007680252164" y="411.0046601956257" as="geometry">
            <mxPoint x="3" y="-8" as="offset" />
          </mxGeometry>
        </mxCell>
        <mxCell id="ht_Mzunb_tVLJNK0aL3s-29" value="STATE_RANGING" style="swimlane;fontStyle=0;childLayout=stackLayout;horizontal=1;startSize=26;horizontalStack=0;resizeParent=1;resizeParentMax=0;resizeLast=0;collapsible=1;marginBottom=0;align=center;fontSize=14;" parent="1" vertex="1">
          <mxGeometry x="640" y="460" width="310" height="70" as="geometry" />
        </mxCell>
        <mxCell id="ht_Mzunb_tVLJNK0aL3s-30" value="/* While idx_anchor &lt; num_anchors &#xa;* Iteratively send POLL to all detected anchors */" style="text;strokeColor=none;fillColor=none;spacingLeft=4;spacingRight=4;overflow=hidden;rotatable=0;points=[[0,0.5],[1,0.5]];portConstraint=eastwest;fontSize=13;" parent="ht_Mzunb_tVLJNK0aL3s-29" vertex="1">
          <mxGeometry y="26" width="310" height="44" as="geometry" />
        </mxCell>
        <mxCell id="ht_Mzunb_tVLJNK0aL3s-32" value="STATE_POLLACK" style="swimlane;fontStyle=0;childLayout=stackLayout;horizontal=1;startSize=26;horizontalStack=0;resizeParent=1;resizeParentMax=0;resizeLast=0;collapsible=1;marginBottom=0;align=center;fontSize=14;" parent="1" vertex="1">
          <mxGeometry x="640" y="602" width="243" height="80" as="geometry" />
        </mxCell>
        <mxCell id="ht_Mzunb_tVLJNK0aL3s-33" value="/* wait for POLLACK response */" style="text;strokeColor=none;fillColor=none;spacingLeft=4;spacingRight=4;overflow=hidden;rotatable=0;points=[[0,0.5],[1,0.5]];portConstraint=eastwest;fontSize=13;" parent="ht_Mzunb_tVLJNK0aL3s-32" vertex="1">
          <mxGeometry y="26" width="243" height="54" as="geometry" />
        </mxCell>
        <mxCell id="ht_Mzunb_tVLJNK0aL3s-35" value="STATE_RANGEREPORT" style="swimlane;fontStyle=0;childLayout=stackLayout;horizontal=1;startSize=26;horizontalStack=0;resizeParent=1;resizeParentMax=0;resizeLast=0;collapsible=1;marginBottom=0;align=center;fontSize=14;" parent="1" vertex="1">
          <mxGeometry x="259" y="600" width="235" height="70" as="geometry" />
        </mxCell>
        <mxCell id="ht_Mzunb_tVLJNK0aL3s-36" value="/* transmitRange() &#xa;* wait for RANGEREPORT message */" style="text;strokeColor=none;fillColor=none;spacingLeft=4;spacingRight=4;overflow=hidden;rotatable=0;points=[[0,0.5],[1,0.5]];portConstraint=eastwest;fontSize=13;" parent="ht_Mzunb_tVLJNK0aL3s-35" vertex="1">
          <mxGeometry y="26" width="235" height="44" as="geometry" />
        </mxCell>
        <mxCell id="ht_Mzunb_tVLJNK0aL3s-37" value="" style="endArrow=classic;html=1;rounded=0;strokeColor=default;jumpStyle=none;exitX=1.005;exitY=0.373;exitDx=0;exitDy=0;entryX=0.906;entryY=1.056;entryDx=0;entryDy=0;entryPerimeter=0;exitPerimeter=0;" parent="1" source="ht_Mzunb_tVLJNK0aL3s-33" target="ht_Mzunb_tVLJNK0aL3s-30" edge="1">
          <mxGeometry width="50" height="50" relative="1" as="geometry">
            <mxPoint x="883" y="740.4405594405596" as="sourcePoint" />
            <mxPoint x="886" y="710" as="targetPoint" />
            <Array as="points">
              <mxPoint x="921" y="648" />
            </Array>
          </mxGeometry>
        </mxCell>
        <mxCell id="ht_Mzunb_tVLJNK0aL3s-39" value="" style="endArrow=classic;html=1;rounded=0;strokeColor=default;jumpStyle=none;exitX=0.39;exitY=0.997;exitDx=0;exitDy=0;exitPerimeter=0;entryX=0.5;entryY=0;entryDx=0;entryDy=0;" parent="1" source="ht_Mzunb_tVLJNK0aL3s-30" target="ht_Mzunb_tVLJNK0aL3s-32" edge="1">
          <mxGeometry width="50" height="50" relative="1" as="geometry">
            <mxPoint x="761" y="580" as="sourcePoint" />
            <mxPoint x="760" y="670" as="targetPoint" />
          </mxGeometry>
        </mxCell>
        <mxCell id="ht_Mzunb_tVLJNK0aL3s-42" value="&lt;font style=&quot;font-size: 13px;&quot;&gt;( transmitPoll()&lt;font style=&quot;font-size: 13px;&quot;&gt; )&lt;br&gt;&lt;/font&gt;&lt;/font&gt;" style="edgeLabel;html=1;align=center;verticalAlign=middle;resizable=0;points=[];fontSize=13;" parent="1" vertex="1" connectable="0">
          <mxGeometry x="761.5038530020233" y="560.0016118025146" as="geometry">
            <mxPoint x="2" as="offset" />
          </mxGeometry>
        </mxCell>
        <mxCell id="ht_Mzunb_tVLJNK0aL3s-43" value="" style="endArrow=classic;html=1;rounded=0;strokeColor=default;jumpStyle=none;exitX=0.003;exitY=0.16;exitDx=0;exitDy=0;entryX=0.997;entryY=0.257;entryDx=0;entryDy=0;exitPerimeter=0;entryPerimeter=0;" parent="1" source="ht_Mzunb_tVLJNK0aL3s-33" target="ht_Mzunb_tVLJNK0aL3s-36" edge="1">
          <mxGeometry width="50" height="50" relative="1" as="geometry">
            <mxPoint x="340.24" y="757.4405594405596" as="sourcePoint" />
            <mxPoint x="360" y="690" as="targetPoint" />
            <Array as="points" />
          </mxGeometry>
        </mxCell>
        <mxCell id="ht_Mzunb_tVLJNK0aL3s-44" value="&lt;div&gt;&lt;font style=&quot;font-size: 13px;&quot;&gt;POLLACK received&lt;br&gt;&lt;/font&gt;&lt;/div&gt;" style="edgeLabel;html=1;align=center;verticalAlign=middle;resizable=0;points=[];" parent="ht_Mzunb_tVLJNK0aL3s-43" vertex="1" connectable="0">
          <mxGeometry x="-0.0227" relative="1" as="geometry">
            <mxPoint x="1" y="4" as="offset" />
          </mxGeometry>
        </mxCell>
        <mxCell id="ht_Mzunb_tVLJNK0aL3s-45" value="" style="endArrow=classic;html=1;rounded=0;strokeColor=default;jumpStyle=none;exitX=-0.001;exitY=0.071;exitDx=0;exitDy=0;exitPerimeter=0;entryX=1.008;entryY=0.222;entryDx=0;entryDy=0;entryPerimeter=0;" parent="1" source="ht_Mzunb_tVLJNK0aL3s-30" target="ZB6a2oAtnxAXg-gOM-Wv-3" edge="1">
          <mxGeometry width="50" height="50" relative="1" as="geometry">
            <mxPoint x="640.0689999999998" y="490.5880000000002" as="sourcePoint" />
            <mxPoint x="400" y="491" as="targetPoint" />
          </mxGeometry>
        </mxCell>
        <mxCell id="ht_Mzunb_tVLJNK0aL3s-47" value="all anchors responded" style="edgeLabel;html=1;align=center;verticalAlign=middle;resizable=0;points=[];fontSize=13;" parent="ht_Mzunb_tVLJNK0aL3s-45" vertex="1" connectable="0">
          <mxGeometry x="0.0342" relative="1" as="geometry">
            <mxPoint x="6" as="offset" />
          </mxGeometry>
        </mxCell>
        <mxCell id="ht_Mzunb_tVLJNK0aL3s-46" value="" style="endArrow=classic;html=1;rounded=0;strokeColor=default;jumpStyle=none;exitX=1;exitY=0.25;exitDx=0;exitDy=0;entryX=0;entryY=1;entryDx=0;entryDy=0;" parent="1" source="ht_Mzunb_tVLJNK0aL3s-35" target="ht_Mzunb_tVLJNK0aL3s-29" edge="1">
          <mxGeometry width="50" height="50" relative="1" as="geometry">
            <mxPoint x="402.99999999999983" y="545.21" as="sourcePoint" />
            <mxPoint x="636.5970000000001" y="544.79" as="targetPoint" />
          </mxGeometry>
        </mxCell>
        <mxCell id="ht_Mzunb_tVLJNK0aL3s-48" value="RANGE_REPORT_TIMEOUT expires&lt;br style=&quot;font-size: 13px;&quot;&gt;&lt;font style=&quot;font-size: 13px;&quot;&gt;(id_anchor++)&lt;/font&gt;" style="edgeLabel;html=1;align=center;verticalAlign=middle;resizable=0;points=[];fontSize=13;" parent="ht_Mzunb_tVLJNK0aL3s-46" vertex="1" connectable="0">
          <mxGeometry x="0.269" y="-3" relative="1" as="geometry">
            <mxPoint x="12" y="16" as="offset" />
          </mxGeometry>
        </mxCell>
        <mxCell id="ht_Mzunb_tVLJNK0aL3s-49" value="" style="endArrow=classic;html=1;rounded=0;strokeColor=default;jumpStyle=none;entryX=0.785;entryY=1.067;entryDx=0;entryDy=0;entryPerimeter=0;" parent="1" target="ht_Mzunb_tVLJNK0aL3s-11" edge="1">
          <mxGeometry width="50" height="50" relative="1" as="geometry">
            <mxPoint x="690" y="460" as="sourcePoint" />
            <mxPoint x="360" y="366" as="targetPoint" />
            <Array as="points">
              <mxPoint x="690" y="410" />
              <mxPoint x="439" y="410" />
            </Array>
          </mxGeometry>
        </mxCell>
        <mxCell id="ht_Mzunb_tVLJNK0aL3s-50" value="&lt;div style=&quot;font-size: 13px;&quot;&gt;anchor responses &amp;lt; num_anchors&lt;/div&gt;&lt;div style=&quot;font-size: 13px;&quot;&gt;( delay(SLEEP) )&lt;br style=&quot;font-size: 13px;&quot;&gt;&lt;/div&gt;" style="edgeLabel;html=1;align=center;verticalAlign=middle;resizable=0;points=[];fontSize=13;" parent="ht_Mzunb_tVLJNK0aL3s-49" vertex="1" connectable="0">
          <mxGeometry x="0.0342" relative="1" as="geometry">
            <mxPoint x="4" as="offset" />
          </mxGeometry>
        </mxCell>
        <mxCell id="ht_Mzunb_tVLJNK0aL3s-53" value="&lt;span style=&quot;font-size: 13px; background-color: rgb(248, 249, 250);&quot;&gt;POLLACK_TIMEOUT &lt;/span&gt;expires&lt;br style=&quot;font-size: 13px;&quot;&gt;&lt;font style=&quot;font-size: 13px;&quot;&gt;(id_anchor++)&lt;/font&gt;" style="edgeLabel;html=1;align=center;verticalAlign=middle;resizable=0;points=[];fontSize=13;" parent="1" vertex="1" connectable="0">
          <mxGeometry x="929.9951546776897" y="570.0038962733017" as="geometry" />
        </mxCell>
        <mxCell id="ZB6a2oAtnxAXg-gOM-Wv-2" value="STATE_SEND_REQUEST_TO_SERVER" style="swimlane;fontStyle=0;childLayout=stackLayout;horizontal=1;startSize=26;horizontalStack=0;resizeParent=1;resizeParentMax=0;resizeLast=0;collapsible=1;marginBottom=0;align=center;fontSize=14;" parent="1" vertex="1">
          <mxGeometry x="210" y="455" width="260" height="50" as="geometry" />
        </mxCell>
        <mxCell id="ZB6a2oAtnxAXg-gOM-Wv-3" value="/* Request server for distance transmission*/" style="text;strokeColor=none;fillColor=none;spacingLeft=4;spacingRight=4;overflow=hidden;rotatable=0;points=[[0,0.5],[1,0.5]];portConstraint=eastwest;fontSize=12;" parent="ZB6a2oAtnxAXg-gOM-Wv-2" vertex="1">
          <mxGeometry y="26" width="260" height="24" as="geometry" />
        </mxCell>
        <mxCell id="ZB6a2oAtnxAXg-gOM-Wv-6" value="STATE_SEND_DISTANCE_TO_SERVER" style="swimlane;fontStyle=0;childLayout=stackLayout;horizontal=1;startSize=26;horizontalStack=0;resizeParent=1;resizeParentMax=0;resizeLast=0;collapsible=1;marginBottom=0;align=center;fontSize=14;" parent="1" vertex="1">
          <mxGeometry x="-146" y="306" width="270" height="80" as="geometry" />
        </mxCell>
        <mxCell id="ZB6a2oAtnxAXg-gOM-Wv-7" value="/* send data;&#xa;* wait 20 ms for a response;&#xa;* read ack */" style="text;strokeColor=none;fillColor=none;spacingLeft=4;spacingRight=4;overflow=hidden;rotatable=0;points=[[0,0.5],[1,0.5]];portConstraint=eastwest;fontSize=13;" parent="ZB6a2oAtnxAXg-gOM-Wv-6" vertex="1">
          <mxGeometry y="26" width="270" height="54" as="geometry" />
        </mxCell>
        <mxCell id="ZB6a2oAtnxAXg-gOM-Wv-9" value="STATE_REQUEST_ACK_FROM_SERVER" style="swimlane;fontStyle=0;childLayout=stackLayout;horizontal=1;startSize=26;horizontalStack=0;resizeParent=1;resizeParentMax=0;resizeLast=0;collapsible=1;marginBottom=0;align=center;fontSize=14;" parent="1" vertex="1">
          <mxGeometry x="-170" y="445" width="270" height="60" as="geometry" />
        </mxCell>
        <mxCell id="ZB6a2oAtnxAXg-gOM-Wv-10" value="/* wait 20 ms for a response */" style="text;strokeColor=none;fillColor=none;spacingLeft=4;spacingRight=4;overflow=hidden;rotatable=0;points=[[0,0.5],[1,0.5]];portConstraint=eastwest;fontSize=13;" parent="ZB6a2oAtnxAXg-gOM-Wv-9" vertex="1">
          <mxGeometry y="26" width="270" height="34" as="geometry" />
        </mxCell>
        <mxCell id="ZB6a2oAtnxAXg-gOM-Wv-11" style="edgeStyle=orthogonalEdgeStyle;rounded=0;orthogonalLoop=1;jettySize=auto;html=1;exitX=0.996;exitY=0.23;exitDx=0;exitDy=0;entryX=0;entryY=0.294;entryDx=0;entryDy=0;entryPerimeter=0;exitPerimeter=0;" parent="1" source="ZB6a2oAtnxAXg-gOM-Wv-7" target="ht_Mzunb_tVLJNK0aL3s-11" edge="1">
          <mxGeometry relative="1" as="geometry" />
        </mxCell>
        <mxCell id="ZB6a2oAtnxAXg-gOM-Wv-12" style="edgeStyle=orthogonalEdgeStyle;rounded=0;orthogonalLoop=1;jettySize=auto;html=1;exitX=0.52;exitY=0.001;exitDx=0;exitDy=0;exitPerimeter=0;" parent="1" source="ZB6a2oAtnxAXg-gOM-Wv-9" edge="1">
          <mxGeometry relative="1" as="geometry">
            <mxPoint x="-126" y="471" as="sourcePoint" />
            <mxPoint x="-30" y="386" as="targetPoint" />
            <Array as="points">
              <mxPoint x="-30" y="416" />
              <mxPoint x="-30" y="416" />
              <mxPoint x="-30" y="386" />
            </Array>
          </mxGeometry>
        </mxCell>
        <mxCell id="ZB6a2oAtnxAXg-gOM-Wv-18" value="ack received" style="edgeLabel;html=1;align=center;verticalAlign=middle;resizable=0;points=[];fontSize=13;" parent="ZB6a2oAtnxAXg-gOM-Wv-12" vertex="1" connectable="0">
          <mxGeometry x="-0.0376" y="-1" relative="1" as="geometry">
            <mxPoint y="1" as="offset" />
          </mxGeometry>
        </mxCell>
        <mxCell id="ZB6a2oAtnxAXg-gOM-Wv-13" style="edgeStyle=orthogonalEdgeStyle;rounded=0;orthogonalLoop=1;jettySize=auto;html=1;entryX=1;entryY=0.404;entryDx=0;entryDy=0;entryPerimeter=0;" parent="1" target="ZB6a2oAtnxAXg-gOM-Wv-10" edge="1">
          <mxGeometry relative="1" as="geometry">
            <mxPoint x="210" y="485" as="sourcePoint" />
            <mxPoint x="100" y="494" as="targetPoint" />
            <Array as="points">
              <mxPoint x="210" y="485" />
              <mxPoint x="152" y="485" />
            </Array>
          </mxGeometry>
        </mxCell>
        <mxCell id="ZB6a2oAtnxAXg-gOM-Wv-19" value="&lt;div style=&quot;font-size: 13px;&quot;&gt;server is available&lt;/div&gt;&lt;div style=&quot;font-size: 13px;&quot;&gt;request distance transmission&lt;/div&gt;" style="edgeLabel;html=1;align=center;verticalAlign=middle;resizable=0;points=[];fontSize=13;" parent="ZB6a2oAtnxAXg-gOM-Wv-13" vertex="1" connectable="0">
          <mxGeometry x="0.0367" y="-2" relative="1" as="geometry">
            <mxPoint y="48" as="offset" />
          </mxGeometry>
        </mxCell>
        <mxCell id="ZB6a2oAtnxAXg-gOM-Wv-16" value="" style="endArrow=classic;html=1;rounded=0;strokeColor=default;jumpStyle=none;entryX=-0.015;entryY=0.852;entryDx=0;entryDy=0;entryPerimeter=0;exitX=1;exitY=0.25;exitDx=0;exitDy=0;" parent="1" source="ZB6a2oAtnxAXg-gOM-Wv-9" target="ht_Mzunb_tVLJNK0aL3s-11" edge="1">
          <mxGeometry width="50" height="50" relative="1" as="geometry">
            <mxPoint x="-20" y="520" as="sourcePoint" />
            <mxPoint x="280" y="366" as="targetPoint" />
          </mxGeometry>
        </mxCell>
        <mxCell id="ZB6a2oAtnxAXg-gOM-Wv-17" value="&lt;div style=&quot;font-size: 13px;&quot;&gt;server is not available /&amp;nbsp;&lt;/div&gt;&lt;div style=&quot;font-size: 13px;&quot;&gt;server is busy with other communications&amp;nbsp; &lt;/div&gt;" style="edgeLabel;html=1;align=center;verticalAlign=middle;resizable=0;points=[];fontSize=13;" parent="ZB6a2oAtnxAXg-gOM-Wv-16" vertex="1" connectable="0">
          <mxGeometry x="0.269" y="-3" relative="1" as="geometry">
            <mxPoint x="-50" y="11" as="offset" />
          </mxGeometry>
        </mxCell>
        <mxCell id="ht_Mzunb_tVLJNK0aL3s-22" value="" style="endArrow=classic;html=1;rounded=0;strokeColor=default;jumpStyle=none;entryX=0.575;entryY=0.009;entryDx=0;entryDy=0;entryPerimeter=0;" parent="1" target="ht_Mzunb_tVLJNK0aL3s-14" edge="1">
          <mxGeometry width="50" height="50" relative="1" as="geometry">
            <mxPoint x="880" y="279" as="sourcePoint" />
            <mxPoint x="941" y="320" as="targetPoint" />
            <Array as="points">
              <mxPoint x="880" y="250" />
              <mxPoint x="824" y="250" />
            </Array>
          </mxGeometry>
        </mxCell>
        <mxCell id="t8s61nKxT8M2EQj23EZ--1" value="" style="edgeStyle=orthogonalEdgeStyle;rounded=0;orthogonalLoop=1;jettySize=auto;html=1;" parent="1" source="t8s61nKxT8M2EQj23EZ--2" target="t8s61nKxT8M2EQj23EZ--4" edge="1">
          <mxGeometry relative="1" as="geometry" />
        </mxCell>
        <mxCell id="t8s61nKxT8M2EQj23EZ--2" value="Tag &lt;font style=&quot;font-size: 16px;&quot;&gt;Init&lt;/font&gt;" style="text;html=1;align=center;verticalAlign=middle;whiteSpace=wrap;rounded=0;fontSize=16;" parent="1" vertex="1">
          <mxGeometry x="310" y="144" width="60" height="30" as="geometry" />
        </mxCell>
        <mxCell id="t8s61nKxT8M2EQj23EZ--3" value="" style="edgeStyle=orthogonalEdgeStyle;rounded=0;orthogonalLoop=1;jettySize=auto;html=1;" parent="1" source="t8s61nKxT8M2EQj23EZ--4" edge="1">
          <mxGeometry relative="1" as="geometry">
            <mxPoint x="340" y="310" as="targetPoint" />
          </mxGeometry>
        </mxCell>
        <mxCell id="t8s61nKxT8M2EQj23EZ--4" value="&lt;font style=&quot;font-size: 16px;&quot;&gt;Server connection&lt;/font&gt;" style="text;html=1;align=center;verticalAlign=middle;whiteSpace=wrap;rounded=0;fontSize=16;" parent="1" vertex="1">
          <mxGeometry x="295" y="200" width="90" height="50" as="geometry" />
        </mxCell>
        <mxCell id="t8s61nKxT8M2EQj23EZ--5" value="" style="endArrow=none;dashed=1;html=1;strokeWidth=2;rounded=0;dashPattern=1 2;strokeColor=#9a9996;" parent="1" edge="1">
          <mxGeometry width="50" height="50" relative="1" as="geometry">
            <mxPoint x="420" y="428" as="sourcePoint" />
            <mxPoint x="420" y="198" as="targetPoint" />
          </mxGeometry>
        </mxCell>
        <mxCell id="t8s61nKxT8M2EQj23EZ--6" value="" style="endArrow=none;dashed=1;html=1;strokeWidth=2;rounded=0;dashPattern=1 2;strokeColor=#9a9996;" parent="1" edge="1">
          <mxGeometry width="50" height="50" relative="1" as="geometry">
            <mxPoint x="960" y="198" as="sourcePoint" />
            <mxPoint x="420" y="198" as="targetPoint" />
          </mxGeometry>
        </mxCell>
        <mxCell id="t8s61nKxT8M2EQj23EZ--7" value="" style="endArrow=none;dashed=1;html=1;strokeWidth=2;rounded=0;dashPattern=1 2;strokeColor=#9a9996;" parent="1" edge="1">
          <mxGeometry width="50" height="50" relative="1" as="geometry">
            <mxPoint x="960" y="428" as="sourcePoint" />
            <mxPoint x="960" y="198" as="targetPoint" />
          </mxGeometry>
        </mxCell>
        <mxCell id="t8s61nKxT8M2EQj23EZ--8" value="" style="endArrow=none;dashed=1;html=1;strokeWidth=2;rounded=0;dashPattern=1 2;strokeColor=#9a9996;" parent="1" edge="1">
          <mxGeometry width="50" height="50" relative="1" as="geometry">
            <mxPoint x="958" y="427" as="sourcePoint" />
            <mxPoint x="418" y="427" as="targetPoint" />
          </mxGeometry>
        </mxCell>
        <mxCell id="t8s61nKxT8M2EQj23EZ--9" value="" style="endArrow=none;dashed=1;html=1;strokeWidth=2;rounded=0;dashPattern=1 2;strokeColor=#9a9996;" parent="1" edge="1">
          <mxGeometry width="50" height="50" relative="1" as="geometry">
            <mxPoint x="240" y="580" as="sourcePoint" />
            <mxPoint x="640" y="440" as="targetPoint" />
          </mxGeometry>
        </mxCell>
        <mxCell id="t8s61nKxT8M2EQj23EZ--10" value="" style="endArrow=none;dashed=1;html=1;strokeWidth=2;rounded=0;dashPattern=1 2;strokeColor=#9a9996;" parent="1" edge="1">
          <mxGeometry width="50" height="50" relative="1" as="geometry">
            <mxPoint x="982" y="440" as="sourcePoint" />
            <mxPoint x="640" y="440" as="targetPoint" />
          </mxGeometry>
        </mxCell>
        <mxCell id="t8s61nKxT8M2EQj23EZ--11" value="" style="endArrow=none;dashed=1;html=1;strokeWidth=2;rounded=0;dashPattern=1 2;strokeColor=#9a9996;" parent="1" edge="1">
          <mxGeometry width="50" height="50" relative="1" as="geometry">
            <mxPoint x="982" y="690" as="sourcePoint" />
            <mxPoint x="982" y="442" as="targetPoint" />
          </mxGeometry>
        </mxCell>
        <mxCell id="t8s61nKxT8M2EQj23EZ--12" value="" style="endArrow=none;dashed=1;html=1;strokeWidth=2;rounded=0;dashPattern=1 2;strokeColor=#9a9996;" parent="1" edge="1">
          <mxGeometry width="50" height="50" relative="1" as="geometry">
            <mxPoint x="980" y="690" as="sourcePoint" />
            <mxPoint x="240" y="690" as="targetPoint" />
          </mxGeometry>
        </mxCell>
        <mxCell id="t8s61nKxT8M2EQj23EZ--13" value="" style="endArrow=none;dashed=1;html=1;strokeWidth=2;rounded=0;dashPattern=1 2;strokeColor=#9a9996;" parent="1" edge="1">
          <mxGeometry width="50" height="50" relative="1" as="geometry">
            <mxPoint x="240" y="690" as="sourcePoint" />
            <mxPoint x="240" y="580" as="targetPoint" />
          </mxGeometry>
        </mxCell>
        <mxCell id="t8s61nKxT8M2EQj23EZ--15" value="Ranging phase" style="text;html=1;align=center;verticalAlign=middle;whiteSpace=wrap;rounded=0;fontColor=#9A9996;fontSize=17;" parent="1" vertex="1">
          <mxGeometry x="840" y="436" width="130" height="30" as="geometry" />
        </mxCell>
        <mxCell id="t8s61nKxT8M2EQj23EZ--17" value="Discovery phase" style="text;html=1;align=center;verticalAlign=middle;whiteSpace=wrap;rounded=0;fontColor=#9A9996;fontSize=17;" parent="1" vertex="1">
          <mxGeometry x="440" y="200" width="130" height="30" as="geometry" />
        </mxCell>
        <mxCell id="OS1unDjvKrbwBlSuESlL-1" style="edgeStyle=orthogonalEdgeStyle;rounded=0;orthogonalLoop=1;jettySize=auto;html=1;exitX=0.5;exitY=0;exitDx=0;exitDy=0;entryX=-0.006;entryY=0.792;entryDx=0;entryDy=0;entryPerimeter=0;" parent="1" source="ht_Mzunb_tVLJNK0aL3s-35" target="ht_Mzunb_tVLJNK0aL3s-30" edge="1">
          <mxGeometry relative="1" as="geometry">
            <Array as="points">
              <mxPoint x="377" y="521" />
            </Array>
          </mxGeometry>
        </mxCell>
        <mxCell id="OS1unDjvKrbwBlSuESlL-2" value="&lt;div&gt;RANGEREPORT message received &lt;br&gt;&lt;/div&gt;&lt;div&gt;( calculate distnace; id_anchor++ )&lt;br&gt;&lt;/div&gt;" style="edgeLabel;html=1;align=center;verticalAlign=middle;resizable=0;points=[];fontSize=13;" parent="1" vertex="1" connectable="0">
          <mxGeometry x="389.9960292930765" y="550.0025653350382" as="geometry" />
        </mxCell>
        <mxCell id="gPbG-uDvJj3W9kXmFbl5-4" value="" style="endArrow=classic;html=1;rounded=0;strokeColor=default;jumpStyle=none;" edge="1" parent="1">
          <mxGeometry width="50" height="50" relative="1" as="geometry">
            <mxPoint x="360" y="450" as="sourcePoint" />
            <mxPoint x="360" y="370" as="targetPoint" />
          </mxGeometry>
        </mxCell>
        <mxCell id="gPbG-uDvJj3W9kXmFbl5-5" value="&lt;div style=&quot;font-size: 13px;&quot;&gt;server is not available&amp;nbsp; &lt;/div&gt;" style="edgeLabel;html=1;align=center;verticalAlign=middle;resizable=0;points=[];fontSize=13;" vertex="1" connectable="0" parent="gPbG-uDvJj3W9kXmFbl5-4">
          <mxGeometry x="0.269" y="-3" relative="1" as="geometry">
            <mxPoint x="-3" y="1" as="offset" />
          </mxGeometry>
        </mxCell>
      </root>
    </mxGraphModel>
  </diagram>
</mxfile>
